<svg width="84" height="71" viewBox="0 0 84 71" fill="none" xmlns="http://www.w3.org/2000/svg">
<path d="M6.612 15.4H10.904V52.288H33.64V56H6.612V15.4Z" fill="#23BEE0"/>
<path d="M33.19 34.74V42H30.22V34.68L21.88 21H25.09L31.81 32.07L38.56 21H41.53L33.19 34.74ZM53.4044 42.24C51.8244 42.24 50.2944 42 48.8144 41.52C47.3544 41.02 46.2044 40.38 45.3644 39.6L46.4744 37.26C47.2744 37.98 48.2944 38.57 49.5344 39.03C50.7944 39.47 52.0844 39.69 53.4044 39.69C55.1444 39.69 56.4444 39.4 57.3044 38.82C58.1644 38.22 58.5944 37.43 58.5944 36.45C58.5944 35.73 58.3544 35.15 57.8744 34.71C57.4144 34.25 56.8344 33.9 56.1344 33.66C55.4544 33.42 54.4844 33.15 53.2244 32.85C51.6444 32.47 50.3644 32.09 49.3844 31.71C48.4244 31.33 47.5944 30.75 46.8944 29.97C46.2144 29.17 45.8744 28.1 45.8744 26.76C45.8744 25.64 46.1644 24.63 46.7444 23.73C47.3444 22.83 48.2444 22.11 49.4444 21.57C50.6444 21.03 52.1344 20.76 53.9144 20.76C55.1544 20.76 56.3744 20.92 57.5744 21.24C58.7744 21.56 59.8044 22.02 60.6644 22.62L59.6744 25.02C58.7944 24.46 57.8544 24.04 56.8544 23.76C55.8544 23.46 54.8744 23.31 53.9144 23.31C52.2144 23.31 50.9344 23.62 50.0744 24.24C49.2344 24.86 48.8144 25.66 48.8144 26.64C48.8144 27.36 49.0544 27.95 49.5344 28.41C50.0144 28.85 50.6044 29.2 51.3044 29.46C52.0244 29.7 52.9944 29.96 54.2144 30.24C55.7944 30.62 57.0644 31 58.0244 31.38C58.9844 31.76 59.8044 32.34 60.4844 33.12C61.1844 33.9 61.5344 34.95 61.5344 36.27C61.5344 37.37 61.2344 38.38 60.6344 39.3C60.0344 40.2 59.1244 40.92 57.9044 41.46C56.6844 41.98 55.1844 42.24 53.4044 42.24ZM72.9442 23.61H65.7442V21H83.1142V23.61H75.9142V42H72.9442V23.61Z" fill="#23BEE0"/>
</svg>
