<svg width="20" height="22" viewBox="0 0 20 22" fill="none" xmlns="http://www.w3.org/2000/svg">
<path d="M7.27273 17.875V7.79167C7.27273 7.65799 7.23011 7.54818 7.14489 7.46224C7.05966 7.3763 6.95076 7.33333 6.81818 7.33333H5.90909C5.77652 7.33333 5.66761 7.3763 5.58239 7.46224C5.49716 7.54818 5.45455 7.65799 5.45455 7.79167V17.875C5.45455 18.0087 5.49716 18.1185 5.58239 18.2044C5.66761 18.2904 5.77652 18.3333 5.90909 18.3333H6.81818C6.95076 18.3333 7.05966 18.2904 7.14489 18.2044C7.23011 18.1185 7.27273 18.0087 7.27273 17.875ZM10.9091 17.875V7.79167C10.9091 7.65799 10.8665 7.54818 10.7812 7.46224C10.696 7.3763 10.5871 7.33333 10.4545 7.33333H9.54545C9.41288 7.33333 9.30398 7.3763 9.21875 7.46224C9.13352 7.54818 9.09091 7.65799 9.09091 7.79167V17.875C9.09091 18.0087 9.13352 18.1185 9.21875 18.2044C9.30398 18.2904 9.41288 18.3333 9.54545 18.3333H10.4545C10.5871 18.3333 10.696 18.2904 10.7812 18.2044C10.8665 18.1185 10.9091 18.0087 10.9091 17.875ZM14.5455 17.875V7.79167C14.5455 7.65799 14.5028 7.54818 14.4176 7.46224C14.3324 7.3763 14.2235 7.33333 14.0909 7.33333H13.1818C13.0492 7.33333 12.9403 7.3763 12.8551 7.46224C12.7699 7.54818 12.7273 7.65799 12.7273 7.79167V17.875C12.7273 18.0087 12.7699 18.1185 12.8551 18.2044C12.9403 18.2904 13.0492 18.3333 13.1818 18.3333H14.0909C14.2235 18.3333 14.3324 18.2904 14.4176 18.2044C14.5028 18.1185 14.5455 18.0087 14.5455 17.875ZM6.81818 3.66667H13.1818L12.5 1.99089C12.4337 1.90495 12.3532 1.85243 12.2585 1.83333H7.75568C7.66098 1.85243 7.58049 1.90495 7.5142 1.99089L6.81818 3.66667ZM20 4.125V5.04167C20 5.17535 19.9574 5.28516 19.8722 5.37109C19.7869 5.45703 19.678 5.5 19.5455 5.5H18.1818V19.0781C18.1818 19.8707 17.9593 20.5558 17.5142 21.1335C17.0691 21.7112 16.5341 22 15.9091 22H4.09091C3.46591 22 2.93087 21.7207 2.4858 21.1621C2.04072 20.6035 1.81818 19.928 1.81818 19.1354V5.5H0.454545C0.32197 5.5 0.213068 5.45703 0.127841 5.37109C0.0426136 5.28516 0 5.17535 0 5.04167V4.125C0 3.99132 0.0426136 3.88151 0.127841 3.79557C0.213068 3.70964 0.32197 3.66667 0.454545 3.66667H4.84375L5.83807 1.27474C5.98011 0.921441 6.2358 0.62066 6.60511 0.372396C6.97443 0.124132 7.34848 0 7.72727 0H12.2727C12.6515 0 13.0256 0.124132 13.3949 0.372396C13.7642 0.62066 14.0199 0.921441 14.1619 1.27474L15.1562 3.66667H19.5455C19.678 3.66667 19.7869 3.70964 19.8722 3.79557C19.9574 3.88151 20 3.99132 20 4.125Z" fill="#E2E2E2"/>
</svg>
